<?xml version="1.0" encoding="UTF-8" standalone="no"?>
<!DOCTYPE svg PUBLIC "-//W3C//DTD SVG 1.1//EN"
 "http://www.w3.org/Graphics/SVG/1.1/DTD/svg11.dtd">
<!-- Generated by graphviz version 2.38.0 (20140413.2041)
 -->
<!-- Title: %3 Pages: 1 -->
<svg width="176pt" height="278pt"
 viewBox="0.00 0.00 176.00 278.00" xmlns="http://www.w3.org/2000/svg" xmlns:xlink="http://www.w3.org/1999/xlink">
<g id="graph0" class="graph" transform="scale(1 1) rotate(0) translate(38 40)">
<title>%3</title>
<polygon fill="white" stroke="none" points="-38,238 -38,-40 138,-40 138,238 -38,238"/>
<!-- 0 -->
<g id="node1" class="node"><title>0</title>
<polygon fill="#000000" fill-opacity="0.501961" stroke="black" points="34,63 -34,63 -34,135 34,135 34,63"/>
<text text-anchor="middle" x="0" y="101.2" font-family="Helvetica,sans-Serif" font-size="9.00">#0 1.000000</text>
</g>
<!-- 1 -->
<g id="node2" class="node"><title>1</title>
<polygon fill="#000000" fill-opacity="0.501961" stroke="black" points="34,162 -34,162 -34,234 34,234 34,162"/>
<text text-anchor="middle" x="0" y="200.2" font-family="Helvetica,sans-Serif" font-size="9.00">#1 1.000000</text>
</g>
<!-- 0&#45;&gt;1 -->
<g id="edge1" class="edge"><title>0&#45;&gt;1</title>
<path fill="none" stroke="#000000" stroke-opacity="0.466667" d="M6.52248,135.021C6.71108,140.481 6.78243,146.177 6.73652,151.816"/>
<polygon fill="#000000" fill-opacity="0.466667" stroke="#000000" stroke-opacity="0.466667" points="10.2353,151.915 6.52726,161.84 3.23684,151.769 10.2353,151.915"/>
</g>
<!-- 0&#45;&gt;1 -->
<g id="edge6" class="edge"><title>0&#45;&gt;1</title>
<path fill="none" stroke="black" d="M-6.52248,135.021C-6.71108,140.481 -6.78243,146.177 -6.73652,151.816"/>
<polygon fill="black" stroke="black" points="-3.23684,151.769 -6.52726,161.84 -10.2353,151.915 -3.23684,151.769"/>
</g>
<!-- 2 -->
<g id="node3" class="node"><title>2</title>
<polygon fill="#000000" fill-opacity="0.501961" stroke="black" points="134,-36 66,-36 66,36 134,36 134,-36"/>
<text text-anchor="middle" x="100" y="2.2" font-family="Helvetica,sans-Serif" font-size="9.00">#2 1.000000</text>
</g>
<!-- 4 -->
<g id="node5" class="node"><title>4</title>
<polygon fill="#000000" fill-opacity="0.501961" stroke="black" points="134,63 66,63 66,135 134,135 134,63"/>
<text text-anchor="middle" x="100" y="101.2" font-family="Helvetica,sans-Serif" font-size="9.00">#4 1.000000</text>
</g>
<!-- 2&#45;&gt;4 -->
<g id="edge2" class="edge"><title>2&#45;&gt;4</title>
<path fill="none" stroke="#000000" stroke-opacity="0.466667" d="M106.522,36.0213C106.711,41.4808 106.782,47.1771 106.737,52.8158"/>
<polygon fill="#000000" fill-opacity="0.466667" stroke="#000000" stroke-opacity="0.466667" points="110.235,52.9149 106.527,62.8396 103.237,52.7687 110.235,52.9149"/>
</g>
<!-- 2&#45;&gt;4 -->
<g id="edge7" class="edge"><title>2&#45;&gt;4</title>
<path fill="none" stroke="black" d="M93.4775,36.0213C93.2889,41.4808 93.2176,47.1771 93.2635,52.8158"/>
<polygon fill="black" stroke="black" points="96.7632,52.7687 93.4727,62.8396 89.7647,52.9149 96.7632,52.7687"/>
</g>
<!-- 5 -->
<g id="node6" class="node"><title>5</title>
<polygon fill="#000000" fill-opacity="0.501961" stroke="black" points="134,162 66,162 66,234 134,234 134,162"/>
<text text-anchor="middle" x="100" y="200.2" font-family="Helvetica,sans-Serif" font-size="9.00">#5 1.000000</text>
</g>
<!-- 2&#45;&gt;5 -->
<g id="edge3" class="edge"><title>2&#45;&gt;5</title>
<path fill="none" stroke="#000000" stroke-opacity="0.466667" d="M100,36.3163C100,68.8321 100,116.674 100,151.883"/>
<polygon fill="#000000" fill-opacity="0.466667" stroke="#000000" stroke-opacity="0.466667" points="103.5,151.914 100,161.914 96.5001,151.914 103.5,151.914"/>
</g>
<!-- 3 -->
<g id="node4" class="node"><title>3</title>
<polygon fill="#000000" fill-opacity="0.501961" stroke="black" points="34,-36 -34,-36 -34,36 34,36 34,-36"/>
<text text-anchor="middle" x="0" y="2.2" font-family="Helvetica,sans-Serif" font-size="9.00">#3 1.000000</text>
</g>
<!-- 3&#45;&gt;0 -->
<g id="edge8" class="edge"><title>3&#45;&gt;0</title>
<path fill="none" stroke="black" d="M0,36.0213C0,41.4808 0,47.1771 0,52.8158"/>
<polygon fill="black" stroke="black" points="3.5001,52.8396 0,62.8396 -3.4999,52.8396 3.5001,52.8396"/>
</g>
<!-- 3&#45;&gt;4 -->
<g id="edge4" class="edge"><title>3&#45;&gt;4</title>
<path fill="none" stroke="#000000" stroke-opacity="0.466667" d="M34.1346,33.7933C41.9321,41.5128 50.3039,49.8009 58.376,57.7922"/>
<polygon fill="#000000" fill-opacity="0.466667" stroke="#000000" stroke-opacity="0.466667" points="61.0356,55.5001 65.6797,65.0229 56.1107,60.4747 61.0356,55.5001"/>
</g>
<!-- 3&#45;&gt;5 -->
<g id="edge5" class="edge"><title>3&#45;&gt;5</title>
<path fill="none" stroke="#000000" stroke-opacity="0.466667" d="M18.3415,36.3163C34.9047,69.1112 59.3415,117.496 77.1652,152.787"/>
<polygon fill="#000000" fill-opacity="0.466667" stroke="#000000" stroke-opacity="0.466667" points="80.3907,151.41 81.7747,161.914 74.1424,154.566 80.3907,151.41"/>
</g>
<!-- 4&#45;&gt;5 -->
<g id="edge9" class="edge"><title>4&#45;&gt;5</title>
<path fill="none" stroke="black" d="M100,135.021C100,140.481 100,146.177 100,151.816"/>
<polygon fill="black" stroke="black" points="103.5,151.84 100,161.84 96.5001,151.84 103.5,151.84"/>
</g>
</g>
</svg>
